<?xml version="1.0"?>
<svg xmlns="http://www.w3.org/2000/svg" viewBox="0 0 512 512" width="512px" height="512px" class=""><g><path d="m379.828125 0h-217.65625c-72.875 0-132.171875 59.296875-132.171875 132.171875v78.828125h-30v30h120v-30h-30v-78.828125c0-39.800781 32.371094-72.171875 72.171875-72.171875h217.65625c39.800781 0 72.171875 32.371094 72.171875 72.171875v61c0 31.113281-19.835938 58.625-49.351562 68.46875l-60.789063 20.257813c-41.777344 13.945312-69.859375 53.894531-69.859375 97.929687 0 39.800781-33.371094 72.171875-73.171875 72.171875h-36.65625c-39.800781 0-72.171875-32.371094-72.171875-72.171875v-78.828125h30v-30h-120v30h30v78.828125c0 72.875 59.296875 132.171875 132.171875 132.171875h36.65625c72.875 0 133.171875-59.296875 133.171875-132.171875 0-18.179687 11.585938-35.25 28.84375-41.007813l60.789062-20.269531c54.054688-18.019531 90.367188-68.410156 90.367188-125.378906v-61c0-72.875-59.296875-132.171875-132.171875-132.171875zm0 0" data-original="#000000" class="active-path" data-old_color="#000000" fill="#CCC4C4"/></g> </svg>
